<svg width="16" height="16" viewBox="0 0 16 16" fill="none" xmlns="http://www.w3.org/2000/svg">
<path d="M10.9976 8.10645C10.9976 7.99219 10.9764 7.88428 10.9341 7.78271C10.8875 7.68115 10.8177 7.58805 10.7246 7.50342L6.08447 2.9585C5.93636 2.81038 5.75863 2.73633 5.55127 2.73633C5.40739 2.73633 5.27832 2.7723 5.16406 2.84424C5.04557 2.91195 4.95247 3.00293 4.88477 3.11719C4.81706 3.23145 4.7832 3.36051 4.7832 3.50439C4.7832 3.71175 4.86149 3.89583 5.01807 4.05664L9.46143 8.38574L9.46143 7.8208L5.01807 12.1562C4.86149 12.3128 4.7832 12.4969 4.7832 12.7085C4.7832 12.8524 4.81706 12.9814 4.88477 13.0957C4.95247 13.21 5.04557 13.3009 5.16406 13.3687C5.27832 13.4364 5.40739 13.4702 5.55127 13.4702C5.65706 13.4702 5.75439 13.4512 5.84326 13.4131C5.9279 13.375 6.0083 13.32 6.08447 13.248L10.731 8.70947C10.9087 8.52751 10.9976 8.3265 10.9976 8.10645Z" fill="#BFBFBF"/>
</svg>
