<svg width="20" height="20" viewBox="0 0 20 20" fill="none" xmlns="http://www.w3.org/2000/svg">
<g clip-path="url(#clip0_171_27280)">
<path d="M20 0H0V20H20V0Z" fill="white" fill-opacity="0.01"/>
<path d="M4.10742 11.25C4.79778 11.25 5.35742 10.6904 5.35742 10C5.35742 9.30964 4.79778 8.75 4.10742 8.75C3.41707 8.75 2.85742 9.30964 2.85742 10C2.85742 10.6904 3.41707 11.25 4.10742 11.25Z" fill="#595959"/>
<path d="M10 11.25C10.6904 11.25 11.25 10.6904 11.25 10C11.25 9.30964 10.6904 8.75 10 8.75C9.30964 8.75 8.75 9.30964 8.75 10C8.75 10.6904 9.30964 11.25 10 11.25Z" fill="#595959"/>
<path d="M15.5352 11.25C16.2255 11.25 16.7852 10.6904 16.7852 10C16.7852 9.30964 16.2255 8.75 15.5352 8.75C14.8448 8.75 14.2852 9.30964 14.2852 10C14.2852 10.6904 14.8448 11.25 15.5352 11.25Z" fill="#595959"/>
</g>
<defs>
<clipPath id="clip0_171_27280">
<rect width="20" height="20" fill="white"/>
</clipPath>
</defs>
</svg>
