<svg width="14" height="16" viewBox="0 0 14 16" fill="none" xmlns="http://www.w3.org/2000/svg">
<path d="M6.98242 15.0283C7.42188 15.0283 7.79102 14.668 7.79102 14.2373V8.82324H13.0645C13.4951 8.82324 13.873 8.4541 13.873 8.00586C13.873 7.56641 13.4951 7.19727 13.0645 7.19727H7.79102V1.77441C7.79102 1.33496 7.42188 0.974609 6.98242 0.974609C6.53418 0.974609 6.16504 1.33496 6.16504 1.77441V7.19727H0.891602C0.460938 7.19727 0.0830078 7.56641 0.0830078 8.00586C0.0830078 8.4541 0.460938 8.82324 0.891602 8.82324H6.16504V14.2373C6.16504 14.668 6.53418 15.0283 6.98242 15.0283Z" fill="#FA4B42"/>
</svg>
